<svg width="64" height="64" viewBox="0 0 64 64" fill="none" xmlns="http://www.w3.org/2000/svg">
<g clip-path="url(#clip0_621_7052)">
<path d="M63.8258 32C63.8258 49.5751 49.5758 63.8251 32.0058 63.8251C14.4258 63.8251 0.175781 49.5751 0.175781 32C0.175781 14.42 14.4258 0.175049 32.0008 0.175049C49.5758 0.175049 63.8258 14.42 63.8258 32Z" fill="#006CA2"/>
<path d="M63.1948 18.215C62.8948 17.55 62.7348 16.715 62.3548 16.095C61.7898 15.175 60.7798 14.58 60.1498 13.705C59.1648 12.335 59.1798 10.515 58.2448 9.12496C57.4898 7.99496 56.7048 7.11996 55.8098 6.08496C55.1998 5.37496 53.9548 3.98496 53.1548 3.53496C52.5998 3.22496 51.8498 3.23996 51.2548 3.10496C50.0998 2.83996 48.9248 2.59996 47.7698 2.35496C47.4298 2.27996 47.0898 2.27996 46.7448 2.27996C46.2748 2.27996 45.8298 2.35996 45.3648 2.35496C43.4498 2.34996 41.9198 3.88496 40.0048 3.92996C39.5748 3.93996 39.1598 3.91996 38.7398 3.85996C38.2348 3.78496 38.0248 3.55996 37.6748 3.20496C37.3698 2.87996 37.0098 2.69496 36.5748 2.58496C36.1548 2.47996 35.6798 2.51496 35.2298 2.51496C34.7798 2.51496 34.4898 2.51496 34.2048 2.19496C34.0448 2.00996 33.9098 1.82996 33.6648 1.74496C33.4348 1.66496 33.2298 1.72496 32.9898 1.69496C31.8548 1.54996 30.8098 1.60996 29.6648 1.65496C28.3798 1.70996 27.1798 2.21496 26.0398 2.78496C25.0648 3.27496 21.9148 4.21496 21.7048 5.43496C21.6148 5.94996 21.8098 5.97996 22.1798 6.18996C23.0298 6.66496 23.9898 6.81496 24.9748 6.83996C25.3198 6.84996 25.6198 6.92496 25.9698 6.92496C26.5148 6.92496 26.9748 6.88496 27.3748 6.49996C27.6848 6.19996 27.9148 5.83496 28.1448 5.47496C28.6098 4.74996 29.1148 3.95496 30.0348 3.79496C30.2498 3.75496 30.5098 3.80996 30.6498 3.99996C30.8248 4.24496 30.6498 4.45996 30.5548 4.68496C30.1948 5.55996 30.0348 6.70496 29.2648 7.34496C28.2448 8.18496 26.5648 7.71996 25.3898 7.57496C24.1298 7.41996 23.7448 7.58996 22.8398 8.53996C22.3698 9.03996 21.8448 9.54996 21.1898 9.80496C20.6048 10.035 19.9998 9.69496 19.4398 9.89496C19.2298 9.96996 19.1248 10.155 18.8648 10.015C18.6548 9.90496 18.5848 9.65496 18.6398 9.43496C18.6998 9.19496 18.7998 9.09996 18.8348 8.85496C18.9498 8.05496 18.4948 7.71996 18.0348 7.14496C17.8798 6.94496 17.8598 6.81996 17.6048 6.70996C17.0598 6.47496 16.6748 6.64996 16.3948 7.11496C16.2598 7.33496 16.1398 7.61996 15.9198 7.76996C15.6248 7.96996 15.3748 7.80996 15.0648 7.88496C14.7298 7.96996 14.3548 8.39496 14.2548 8.71496C14.2098 8.86496 14.2248 9.95496 14.3398 9.97996C14.6748 10.045 15.0198 9.98496 15.3548 10.045C15.4548 10.61 15.2098 11.52 15.8398 11.81C16.1798 11.97 16.8098 12.115 17.1598 11.95C17.3748 11.85 17.8948 11.165 18.1598 11.385C18.5698 11.74 18.2748 12.64 18.1548 13.085C17.9698 13.75 17.3148 13.675 16.7348 13.63C16.5048 13.615 16.2798 13.575 16.0498 13.54C15.8548 13.51 15.6448 13.32 15.4498 13.325C14.9948 13.335 14.6298 14.27 14.4998 14.615C14.2698 15.225 14.0648 16.145 14.3848 16.765C14.7248 17.425 15.3698 17.215 15.9898 17.28C16.6148 17.345 17.1498 17.385 17.7698 17.21C18.2348 17.08 18.7398 16.78 19.0998 16.44C20.0598 15.52 23.4698 12.265 24.3198 14.915C24.4948 15.46 24.3448 16.09 24.5648 16.61C24.9348 17.51 25.9198 16.605 26.2948 16.21C27.1098 15.36 26.8648 15.275 26.2548 14.525C25.9148 14.105 26.1498 13.595 26.6498 13.55C27.5998 13.465 28.0248 14.27 28.3798 15.01C28.5348 15.335 28.5598 15.81 28.9048 15.975C29.2498 16.145 29.8098 16.18 30.1748 16.075C30.7248 15.915 30.9848 15.395 31.5748 15.34C31.9748 15.3 32.3148 15.49 32.6348 15.695C32.9048 15.865 33.0448 16.06 33.0148 16.39C32.9948 16.655 32.8098 16.84 32.8698 17.11C32.9748 17.555 33.4548 17.805 33.8598 17.89C34.8098 18.09 35.7698 17.75 36.7048 17.645C37.2048 17.59 37.6498 17.68 38.0498 18C38.6248 18.465 39.0048 19.355 38.3848 19.955C37.8598 20.46 36.4798 20.22 35.8198 20.22C34.5048 20.22 33.0448 19.505 31.7448 19.89C31.3598 20.005 30.9898 20.14 30.6098 20.28C29.3248 20.77 27.5448 20.825 26.2598 20.325C25.2448 19.925 23.5698 19.185 22.7998 18.4C22.5448 18.135 22.4748 17.85 22.1098 17.645C21.3798 17.24 20.4998 17.405 19.7498 17.665C18.6898 18.03 17.5298 18.31 16.5248 18.74C15.1048 19.35 13.1098 20.77 12.1848 22.01C11.0698 23.5 10.4348 25.83 10.1248 27.605C9.9748 28.485 9.5598 29.255 9.7798 30.21C10.0098 31.165 10.4398 32.48 11.0498 33.205C12.3398 34.735 14.1398 35.33 16.0898 35.195C17.8348 35.07 19.6948 34.71 21.2848 35.67C23.0148 36.715 23.2048 38.59 23.7748 40.335C24.2648 41.825 25.1098 42.97 25.0798 44.595C25.0548 46.385 24.5348 48.26 25.4398 49.93C26.2398 51.4 27.0248 53.355 28.4048 54.375C30.1148 55.63 33.7748 55.9 35.3348 54.335C36.0048 53.665 36.7048 52.71 37.1748 51.885C37.7398 50.9 37.8998 49.84 38.3698 48.88C38.8148 47.96 39.8748 47.435 40.3348 46.5C40.7098 45.745 40.8498 44.73 40.8148 43.89C40.7848 43.005 40.4048 42.36 40.3848 41.5C40.3498 40.38 40.4548 39.695 41.2398 38.88C42.7298 37.34 49.2798 32.985 44.5298 31.575C42.9298 31.1 42.2348 30.195 41.1898 28.94C40.2848 27.855 39.4498 26.785 38.6848 25.635C38.1598 24.84 37.6848 23.92 37.4748 22.985C37.3148 22.25 37.9998 21.48 38.7048 22.16C39.0148 22.46 39.2998 23.055 39.4948 23.415C40.0398 24.455 40.7398 25.31 41.4098 26.235C42.2798 27.45 43.1248 29.1 44.5048 29.795C46.6848 30.885 52.7598 25.525 48.9598 24.575C48.2398 24.395 47.4498 24.25 46.8698 23.745C46.4948 23.42 45.5348 22.115 46.2598 21.845C46.5148 21.745 46.7598 21.705 47.0298 21.765C47.2898 21.82 47.5848 22.045 47.8048 22.175C48.1298 22.37 48.3848 22.595 48.6748 22.835C48.9148 23.03 49.1798 23.14 49.4498 23.29C49.7498 23.455 50.0098 23.725 50.3148 23.875C51.2098 24.305 52.1648 24.07 53.0998 24.17C53.9948 24.27 54.8348 24.9 55.3348 25.63C56.4898 27.325 56.3898 28.97 56.9048 30.845C57.1648 31.78 57.7298 32.545 58.8548 32.595C59.9648 32.645 60.3498 31.555 60.3748 30.625C60.3948 29.82 60.2298 28.885 60.5398 28.185C60.8798 27.425 61.5498 27.01 62.1698 26.5C63.7398 25.195 64.5398 23.84 64.5098 21.765C64.4848 20.33 63.7848 19.5 63.1948 18.215ZM38.0398 14.82C37.9048 14.765 37.7648 14.72 37.5998 14.695C37.4148 14.665 37.2898 14.61 37.0898 14.645C36.8648 14.68 36.6348 14.77 36.4148 14.81C36.1748 14.855 35.9348 15.05 35.6798 14.985C34.8698 14.78 35.7298 13.39 36.0648 13.11C36.3748 12.855 36.7298 12.83 37.1148 12.81C37.6948 12.78 38.1298 12.445 38.6848 12.78C38.8248 12.865 38.9098 12.975 39.0048 13.1C39.1848 13.355 39.2748 13.645 39.4048 13.93C39.5098 14.17 39.5748 14.435 39.5798 14.695C39.5848 15.32 38.9748 15.225 38.5748 15.06C38.3748 14.975 38.2098 14.89 38.0398 14.82ZM46.0498 16.69C45.5348 16.335 45.2298 15.665 45.1298 15.09C45.0798 14.79 45.0448 14.485 44.9898 14.195C44.9348 13.925 44.9598 13.58 45.1448 13.36C45.2898 13.195 45.6298 13.105 45.8448 13.115C46.5048 13.145 46.3598 14.01 46.7198 14.35C47.0398 14.65 47.5298 14.97 47.6398 15.42C47.7948 16.09 47.3148 17.105 46.4998 16.9C46.3348 16.85 46.1848 16.78 46.0498 16.69Z" fill="#BDCF46"/>
<path d="M45.1241 46.1199C44.5441 45.8899 43.8491 46.3099 43.3991 46.6399C43.1791 46.7999 42.9291 46.9449 42.7241 47.1149C42.4741 47.3149 42.4241 47.6399 42.3391 47.9349C42.2391 48.2949 42.0141 48.6399 41.9641 48.9949C41.8341 49.8699 41.9391 51.2999 43.2241 51.0749C44.1441 50.9149 44.7291 49.7949 45.0591 49.0399C45.2441 48.6299 45.7941 46.3849 45.1241 46.1199Z" fill="#BDCF46"/>
</g>
<defs>
<clipPath id="clip0_621_7052">
<rect width="64" height="64" fill="white"/>
</clipPath>
</defs>
</svg>
