<svg width="64" height="64" viewBox="0 0 64 64" fill="none" xmlns="http://www.w3.org/2000/svg">
<g clip-path="url(#clip0_621_7095)">
<path d="M53.2142 10.7869C64.9522 22.5249 64.9522 41.4753 53.2142 53.2133C41.4762 64.9513 22.5258 64.9513 10.7878 53.2133C7.67651 50.1021 5.41377 46.5665 3.92885 42.6774L14.3233 7.81707C16.2325 6.47356 18.2124 5.34219 20.1923 4.49366L21.7479 5.05935L22.0308 3.64513C32.5667 0.0388904 44.7996 2.37234 53.2142 10.7869Z" fill="#008DB3"/>
<path d="M6.82704 41.4753C8.73622 42.1117 7.8877 39.5661 9.08978 40.9096C10.2919 42.2531 14.0395 44.1623 14.2517 43.2431C14.4638 42.3239 12.3425 40.2025 13.0496 39.0712C13.7567 37.7984 13.4738 34.8285 14.6759 35.1821C15.8073 35.4649 17.0094 36.9498 17.0801 36.3134C17.1508 35.6771 17.9286 35.4649 18.7771 36.4549C19.6257 37.4448 21.747 37.8691 22.5248 38.0812C23.3026 38.2933 19.6257 38.1519 17.6458 37.8691C15.6659 37.5862 20.6863 39.6369 23.0905 39.9197C25.4947 40.2025 30.5858 36.9498 32.2122 36.4549C33.8385 35.9599 35.182 31.3637 34.1214 32.5658C34.1214 32.5658 31.8586 35.5356 30.4444 35.9599C29.0302 36.3842 26.8382 38.5762 25.7775 38.3641C24.7875 38.0812 23.7976 37.0913 22.1713 36.8791C20.6156 36.5963 18.565 35.3942 20.1206 35.2528C21.6763 35.1114 22.8077 34.2628 22.4541 33.6264C22.1005 32.99 18.6357 33.2022 19.06 31.3637C19.4842 29.5252 21.1106 28.8888 21.1106 27.8989C21.1106 26.7675 20.757 23.8684 19.6257 23.4441C18.565 22.9491 17.9286 22.4542 18.07 21.8885C18.2115 21.3228 16.0901 23.4441 16.3023 21.9592C16.5144 20.4743 16.9387 19.06 18.1407 20.1207C19.3428 21.1814 20.3328 22.3127 20.757 21.8885C21.1813 21.4642 20.5449 19.555 19.8378 19.1308C19.06 18.7772 18.2822 17.1509 19.06 16.2316C19.8378 15.3124 19.4135 12.9082 18.2822 11.3526C17.1508 9.79694 16.0194 8.66557 15.5245 9.44339C15.1002 10.1505 14.1809 9.37268 14.3224 7.81705C13.0496 8.66557 11.9182 9.65552 10.7868 10.7869C2.16013 19.4136 -0.102608 32.0001 3.9279 42.6774C4.63501 41.9703 5.62496 41.1218 6.82704 41.4753ZM22.4541 7.46349C22.8077 8.80699 22.8784 6.33212 21.9591 3.71582C21.3227 3.92795 20.757 4.2108 20.1206 4.42293C20.9692 5.13004 22.242 6.40283 22.4541 7.46349Z" fill="#008DB3"/>
<path d="M22.9497 19.6965C23.3033 18.0701 24.8589 16.5145 23.5154 15.171C22.1719 13.8275 23.7275 7.74638 22.879 8.73633C22.0305 9.72628 21.9598 13.1911 20.8284 12.0597C19.697 10.9284 17.5757 8.80704 16.7979 8.45348C15.8786 8.09993 19.7677 11.7062 20.1213 12.6254C20.4748 13.5447 23.0911 15.5953 22.5962 16.6559C22.0305 17.7873 21.2526 19.8379 22.1012 20.6864C22.9497 21.535 22.5961 21.3228 22.9497 19.6965ZM35.1827 29.8081C36.1019 29.7374 36.4554 31.6466 36.7383 30.7981C37.0918 30.0202 38.3646 30.0202 38.2232 29.3131C38.1525 28.6767 37.9404 28.3232 39.5667 28.2525C41.1931 28.0403 41.688 27.2625 40.5567 27.2625C39.4253 27.2625 37.9404 26.7675 36.3847 27.6161C36.3847 27.6161 34.9705 28.7474 33.6977 29.1717C33.6977 29.1717 31.8592 29.7374 31.8592 30.5859C31.93 31.3637 30.3743 29.8081 30.3743 30.3738C30.3743 30.9395 31.7178 31.4345 30.6572 32.0708C29.5965 32.7072 29.5965 33.2729 28.6773 32.778C27.758 32.283 26.8388 33.9093 27.3338 32.4244C27.8287 30.9395 28.1116 30.2324 28.5358 30.6566C29.0308 31.0102 29.1722 29.3131 27.6873 28.5353C26.2731 27.8282 25.6367 29.1717 24.2932 27.6868C23.6568 27.0504 23.5154 28.8889 24.5053 29.4546C25.4246 30.0909 25.2124 30.5859 25.4953 31.5759C25.7074 32.6365 25.6367 35.5357 25.2832 35.8892C24.8589 36.3135 25.7781 36.9499 26.5559 37.162C27.3338 37.3741 28.8187 36.0306 29.1722 35.8185C29.5258 35.6064 27.6166 32.9901 28.3237 33.5558C29.0308 34.1215 30.94 35.7478 30.7279 35.1114C30.5157 34.475 31.8592 34.2629 31.5057 33.9093C31.1521 33.5558 30.0915 33.2022 31.2229 32.778C32.3542 32.3537 33.6977 31.5759 33.2028 31.2223C32.5664 30.8688 34.2634 29.8788 35.1827 29.8081ZM25.7781 29.7374C27.6166 30.8688 27.0509 32.0001 26.4852 32.0001C25.9196 32.0001 25.3539 29.4546 25.7781 29.7374ZM43.5972 31.293C41.3345 31.4345 39.1424 30.2324 38.6475 30.3031C37.7282 30.3738 39.7788 32.0001 40.0617 32.5658C40.2738 33.0608 38.7889 32.9901 38.2939 33.0608C37.7989 33.2729 37.7282 32.778 37.5868 32.3537C37.3747 31.8587 36.314 32.3537 35.8898 33.0608C35.4655 33.7679 35.2534 33.5558 35.5362 34.2629C35.819 34.97 36.314 35.1821 35.4655 35.465C34.617 35.7478 34.6877 36.5256 34.6877 37.3741C34.6877 38.2227 34.7584 38.5762 34.8998 39.0005C35.1119 39.4955 32.6371 41.5461 33.6977 42.6067C34.7584 43.6674 36.5262 43.5967 37.0918 44.5866C37.6575 45.5766 38.8596 46.0716 39.2132 45.0109C39.496 43.8795 40.6274 43.031 40.5567 42.3946C40.486 41.7582 41.9002 39.354 42.8194 39.7076C43.8094 39.9904 44.4458 39.9197 45.0114 39.354C45.5771 38.7884 46.2135 39.2833 46.5671 39.6369C46.9913 40.0612 47.4863 38.8591 48.1227 38.5055C48.7591 38.152 49.8198 36.9499 48.9712 35.8185C48.1227 34.8286 48.052 33.6265 47.6984 32.9901C47.3449 32.3537 45.7185 31.1516 43.5972 31.293ZM48.9712 38.7884C48.3348 39.2833 50.1026 40.2026 50.5269 39.9197C51.0218 39.7076 50.3147 38.5762 49.6783 38.0813C49.2541 37.657 49.6076 38.2934 48.9712 38.7884ZM56.6787 28.6767C56.3959 29.101 55.1231 28.3939 55.0523 28.8889C54.9816 29.8081 56.9615 29.6667 56.8908 30.7273C56.8201 31.788 57.5272 32.778 57.103 33.3436C56.6787 33.9093 56.6787 35.1821 57.4565 35.1114C58.2343 35.0407 58.5879 33.98 58.0929 33.0608C57.5979 32.1416 57.5272 31.6466 57.8101 30.9395C58.0929 30.2324 57.4565 29.7374 57.5979 28.8889C57.8808 28.1818 57.0322 28.3232 56.6787 28.6767Z" fill="#FFC942"/>
</g>
<defs>
<clipPath id="clip0_621_7095">
<rect width="64" height="64" fill="white" transform="translate(-13.2539 32) rotate(-45)"/>
</clipPath>
</defs>
</svg>
