<svg width="56" height="56" viewBox="0 0 56 56" fill="none" xmlns="http://www.w3.org/2000/svg">
<path d="M28 56C43.464 56 56 43.464 56 28C56 12.536 43.464 0 28 0C12.536 0 0 12.536 0 28C0 43.464 12.536 56 28 56Z" fill="#0074BA"/>
<path d="M3.922 42.3L5.1 40.98C5.66 40.36 5.98 39.54 5.98 38.7V35.18C5.98 34.52 6.5 34 7.16 34C7.62 34 7.98 33.64 7.98 33.18V32C7.98 30.9 7.08 30 5.98 30C4.88 30 3.98 29.1 3.98 28V26.98C3.98 26.44 4.42 26 4.96 26C5.52 26 6 26.46 5.96 27.02C5.96 27.56 6.4 28 6.94 28H8.14C9.16 28 9.98 27.18 9.98 26.16V25C9.98 24.44 10.42 24 10.98 24C11.54 24 11.98 24.44 11.98 25V26.9C11.98 27.52 12.48 28 13.08 28C13.58 28 13.98 28.4 13.98 28.9V30.76C13.9796 31.0407 14.074 31.3134 14.2479 31.5338C14.4219 31.7542 14.6652 31.9094 14.9383 31.9742C15.2115 32.039 15.4986 32.0097 15.753 31.8909C16.0074 31.7722 16.2142 31.571 16.34 31.32L19.58 24.82C19.7075 24.5742 19.8997 24.368 20.1359 24.2234C20.372 24.0789 20.6431 24.0017 20.92 24C21.56 24 22.12 24.42 22.34 25.02L23.74 29.2C23.8272 29.4604 24.0039 29.6815 24.2387 29.8238C24.4736 29.9662 24.7513 30.0206 25.0225 29.9774C25.2937 29.9342 25.5408 29.7962 25.7198 29.5879C25.8988 29.3796 25.9981 29.1146 26 28.84V25C26 24.44 26.44 24 27 24C27.56 24 28 23.56 28 23V20.12C28 18.96 28.94 18 30.12 18C31.16 18 32 17.16 31.98 16.12V15.88C31.98 14.84 31.14 14 30.1 14H28.98C28.42 14 27.98 13.56 27.98 13C27.98 12.44 28.42 12 28.98 12H32.24C33.2 12 33.98 12.78 33.98 13.74V15C33.98 15.56 34.42 16 34.98 16C35.54 16 35.98 15.56 35.98 15V13.84C35.98 11.72 37.7 9.99998 39.82 9.99998H42.98C43.54 9.99998 43.98 9.55998 43.98 8.99998C43.98 8.43998 43.54 7.99998 42.98 7.99998H37.18C36.52 7.99998 35.98 7.45998 35.98 6.79998C35.98 6.35998 35.62 5.99998 35.18 5.99998H26.12C24.74 5.99998 23.38 5.57998 22.24 4.79998L17.9 1.87598C7.428 5.92798 0 16.096 0 28C0 33.224 1.43 38.114 3.922 42.3ZM32 33.28V31.42C32 30.64 32.62 30 33.42 29.96C33.8 29.96 34.16 30.12 34.42 30.38L37.6 33.56C37.88 33.82 38.02 34.18 38.02 34.56C38.02 35.34 37.38 35.98 36.6 35.98H36.32C36.12 35.98 35.92 35.94 35.74 35.86L32.84 34.56C32.5888 34.454 32.3748 34.2757 32.2252 34.0478C32.0756 33.8199 31.9972 33.5526 32 33.28ZM26.94 32H25.04C24.46 32 23.98 32.48 23.98 33.06V34.96C23.98 35.54 24.46 36.02 25.04 36.02H26.94C27.52 36.02 28 35.54 28 34.96V33.06C28 32.48 27.52 32 26.94 32ZM20 35C20 35.56 20.44 36 21 36C21.54 36 22 35.56 22 35V33C22 32.44 21.56 32 21 32C20.44 32 20 32.44 20 33V35ZM33.58 18.42L30.4 21.6C30.14 21.86 29.98 22.22 29.98 22.6C29.98 23.38 30.62 24.02 31.4 24.02C31.78 24.02 32.14 23.88 32.4 23.6L35.58 20.42C35.84 20.16 36 19.8 36 19.42C36 18.64 35.36 18 34.58 18C34.2 18 33.84 18.14 33.58 18.42ZM40.4 47.6L43.58 44.42C43.84 44.14 44.2 44 44.58 44C45.36 44 46 44.64 46 45.42C46 45.8 45.84 46.16 45.58 46.42L42.4 49.6C42.14 49.88 41.78 50.02 41.4 50.02C40.62 50.02 39.98 49.38 39.98 48.6C39.98 48.22 40.14 47.86 40.4 47.6ZM26 41.48V43.94C26 45.08 26.92 46 28.06 46H31.12C31.66 46 32.18 46.22 32.56 46.6L33.38 47.42C33.76 47.8 34.28 48.02 34.82 48.02H36.7C37.48 48.02 38.2 47.58 38.54 46.88L39.76 44.46C39.9 44.18 39.98 43.86 39.98 43.54V41.3C39.98 40.52 39.54 39.8 38.84 39.46L36.42 38.24C36.14 38.1 35.82 38.02 35.5 38.02H32.32C32.1 38.02 31.88 38.06 31.66 38.12L27.38 39.54C26.56 39.82 26 40.6 26 41.48Z" fill="#00D26A"/>
</svg>
