<svg width="64" height="64" viewBox="0 0 64 64" fill="none" xmlns="http://www.w3.org/2000/svg">
<g clip-path="url(#clip0_621_7110)">
<path d="M63.8522 32.0701C63.8522 49.7301 49.5352 64.0401 31.8802 64.0401C14.2212 64.0401 -0.0898438 49.7291 -0.0898438 32.0701C-0.0898437 14.4131 14.2212 0.100098 31.8802 0.100098C49.5342 0.100098 63.8522 14.4131 63.8522 32.0701Z" fill="#1E75BB"/>
<path d="M15.1193 41.31C9.4543 29.155 9.1993 16.07 14.3233 5.26001C5.6413 10.974 -0.0957031 20.795 -0.0957031 31.966C-0.0957031 49.626 14.2153 63.936 31.8743 63.936C32.1883 63.936 32.4983 63.897 32.8103 63.889C25.4803 57.722 19.3043 50.298 15.1193 41.314" fill="#186DA3"/>
<path fill-rule="evenodd" clip-rule="evenodd" d="M17.9079 38.533C17.5059 38.373 16.5769 38.209 16.5619 38.658C16.5379 39.377 16.3729 38.343 16.6229 38.343C16.9409 38.343 17.7819 38.188 17.9079 38.533ZM16.6229 37.07C16.4299 36.991 16.8919 36.82 16.5619 36.752C16.6489 36.622 16.7829 36.815 16.9489 36.689C16.7709 36.854 16.8559 36.884 16.9489 37.071C16.8459 36.995 16.6759 36.846 16.6229 37.071" fill="#00A650"/>
<path d="M28.4239 16.04C28.2659 16.792 28.0109 17.451 27.5979 17.947C27.2879 17.767 26.9979 17.564 27.0849 16.992C27.6339 16.781 27.4819 15.858 28.4239 16.04ZM29.3249 23.677C29.0129 23.805 29.5579 23.874 29.3839 24.248C29.0799 24.304 29.1819 23.942 28.8169 24.058C28.8789 23.613 28.9449 23.582 28.8169 23.167C28.5699 23.244 28.1359 23.401 27.8519 23.231C27.7689 23.025 28.0609 23.182 27.9769 22.977C27.8329 23.041 27.6829 23.105 27.6589 23.294C27.5989 23.498 27.8289 23.425 27.8519 23.549C27.8779 23.827 27.7379 23.944 27.5989 24.057C27.2689 23.918 27.1729 23.55 27.0859 23.166C27.1259 23.058 27.3879 23.171 27.4079 23.04C27.4709 22.825 27.2069 22.942 27.0859 22.913C27.0349 22.718 27.2599 22.789 27.2139 22.595C27.2149 22.457 26.9869 22.564 26.8919 22.531C26.8639 22.114 26.5879 21.948 26.7009 21.387C26.8569 21.394 27.0109 21.396 27.0859 21.322V20.24C27.3189 20.199 27.3769 19.977 27.5319 19.86C27.9349 19.819 27.9389 20.18 28.4249 20.05V21.387C28.2389 21.474 28.1009 21.613 27.8519 21.641V22.025C27.8779 22.192 28.1799 22.081 28.2349 22.215C28.2709 22.459 27.8639 22.269 27.8519 22.467C27.8099 22.868 28.4329 22.74 28.4919 22.531C28.6639 22.681 28.9319 22.73 29.1989 22.786C29.1119 23.252 29.4079 23.34 29.4509 23.677H30.1539C30.1529 23.818 30.2089 23.88 30.3469 23.868V24.63H30.0229C29.9799 24.888 30.2339 24.85 30.1529 25.141C30.0799 25.213 29.9279 25.212 29.7699 25.203C29.7999 24.812 29.3519 24.51 29.7069 24.185C29.6839 23.916 29.3639 23.931 29.3249 23.677Z" fill="#00A650"/>
<path d="M29.2002 25.3321C29.3972 25.3611 29.3422 25.1371 29.5832 25.2041C29.6192 25.3571 29.8282 25.3411 29.7722 25.5871C29.0772 25.4241 28.9882 25.8681 28.5602 25.9681C28.3982 25.8721 28.2082 25.8071 28.2362 25.5231C28.2562 25.2861 28.5762 25.3511 28.5602 25.0781C28.4492 24.9301 28.0702 25.0551 27.8532 25.0141C27.8872 24.7251 28.1512 24.6801 28.0392 24.2491C28.8232 24.0491 28.7142 24.7321 29.0702 24.9491C29.2712 24.9821 29.1172 24.6571 29.2612 24.6311C29.5832 24.7201 29.3822 25.2091 29.2002 25.3321ZM30.1502 25.3951C30.3472 25.3871 30.3342 25.5961 30.6002 25.5231C30.5412 25.8591 30.7932 25.8791 30.9182 26.0321C30.9192 26.4031 30.8352 26.8751 31.1112 26.9841C30.8922 27.1991 30.9512 27.6781 30.5362 27.6861C30.4932 27.5941 30.6052 27.3571 30.4672 27.3671C30.1952 27.4301 30.4142 27.9911 30.3422 28.2591C29.7652 28.2371 29.4972 27.9081 29.1932 27.6241C29.1422 27.4031 29.2602 27.3531 29.3192 27.2401C29.2892 27.0571 29.1852 26.9511 28.9952 26.9241C28.8152 27.0321 28.5572 27.2491 28.3592 26.9851C28.1542 26.9561 28.3102 27.2791 28.1662 27.3051C27.6492 26.7741 28.6692 26.2791 29.1932 26.1611V26.4791C29.4342 26.4641 29.5482 26.3251 29.7652 26.2871V25.9701C29.9232 25.9781 30.0752 25.9791 30.1482 25.9051C30.1502 25.7331 30.1502 25.5651 30.1502 25.3951ZM5.66318 26.1601C6.15718 26.4051 6.73718 28.6721 5.41018 28.4501C5.29818 27.4951 5.58818 26.9401 5.66318 26.1601ZM24.9772 27.1101C24.8802 27.6111 25.1922 27.6981 25.2332 28.0661C25.7762 27.9691 25.8872 28.3041 26.1282 28.5101C26.0882 28.8361 25.6322 28.7411 25.7432 29.2121H25.2342C25.1142 29.3651 25.2302 29.7581 25.0412 29.8471C25.1712 30.1361 25.4872 30.2491 25.3612 30.8001C25.5702 31.0121 26.0562 30.9581 25.9362 31.5001C25.6692 31.5551 25.1522 31.3551 25.1702 31.6931C25.3062 31.9961 25.8782 31.8771 25.7442 32.4531C25.3772 32.4781 25.4542 32.0611 25.1042 32.0741C24.8952 32.0961 25.0012 32.4401 24.9782 32.6471C24.6032 32.5531 24.6262 32.8491 24.3972 32.9011C24.5252 33.7051 24.0772 33.9391 24.2062 34.7451C23.8052 34.4231 23.5442 34.6761 23.0572 34.7451C22.9902 33.8491 21.8492 34.0571 21.3332 34.3651C21.3342 34.2081 21.3342 34.0581 21.2662 33.9821H20.3702C20.3902 33.5641 20.0502 33.4951 20.1842 32.9651C20.1832 32.8011 19.9672 32.8381 19.7972 32.8371C19.7242 32.2081 19.3212 31.9121 19.4102 31.1191C19.6432 31.0771 19.7022 30.8551 19.8602 30.7371C20.2622 30.6541 20.1842 31.0541 20.6262 30.9281C20.8832 30.5051 21.4772 30.4151 21.7142 29.9721C22.5732 29.7691 22.5102 28.6661 23.5722 28.6371C23.6472 28.5611 23.6432 28.4121 23.6352 28.2551H23.9552C23.9372 27.7721 24.4552 27.8191 24.3972 27.3001C24.7712 27.4181 24.6692 27.0571 24.9772 27.1101ZM11.9302 28.4491H12.1832C12.3492 28.6501 12.6862 28.6681 13.0852 28.6391C13.4822 29.0001 13.5052 29.7451 14.2302 29.7851C14.3372 30.5501 15.0852 30.6701 15.7012 30.9301C15.8432 31.4071 16.3962 31.4711 16.5342 31.9481C16.6232 32.2911 16.2872 32.2151 16.3452 32.5201C16.9912 32.5941 16.8312 33.4741 17.4272 33.6001C17.4982 33.3661 17.2692 33.4191 17.2992 33.2191C17.4832 33.1451 17.5502 32.9531 17.8782 33.0301C17.6702 33.7271 18.4742 33.6691 18.2612 34.1761C18.0642 34.2221 18.1412 34.0011 17.9392 34.0471C17.4002 34.6291 18.0642 35.2801 17.6842 35.8941C17.4082 35.7881 17.1872 35.6211 16.7232 35.7031C16.5432 35.0771 15.6102 35.2041 15.5722 34.4301C15.5012 34.3591 15.3512 34.3591 15.1892 34.3681C15.1732 33.9851 14.9922 33.7621 14.8062 33.5411C14.8362 33.0641 14.6202 32.8381 14.4232 32.5861C14.3922 31.2191 13.1442 31.0641 12.8892 29.9151C12.3962 29.5951 11.9582 29.2281 11.9302 28.4491ZM27.3442 31.6941H28.7502C28.6592 32.0271 28.5532 32.3461 28.2342 32.4541C28.0732 32.0691 27.6502 31.9371 27.3442 31.6941Z" fill="#1E75BB"/>
<path d="M27.8522 32.3302C27.7022 32.5542 26.9562 32.4742 26.7012 32.3932V32.1412C26.9792 32.0712 27.8522 31.9122 27.8522 32.3302ZM33.2202 32.4542H33.4152C33.2712 33.0452 33.7432 33.0252 33.8032 33.4112H33.2202C33.2832 33.0202 33.0722 32.7542 33.2202 32.4542Z" fill="#00A650"/>
<path d="M35.3402 33.4752C35.2012 33.4692 34.8242 33.7052 34.3842 33.6002C34.2932 33.3192 34.5952 33.4372 34.5702 33.2192C34.4122 32.8232 33.4652 33.2192 33.6132 32.5222C34.1322 32.5272 35.0092 32.4152 35.9152 32.4552C36.1622 32.5932 35.9902 33.1432 36.3002 33.2202C36.3482 33.4162 36.1262 33.3452 36.1722 33.5392C36.1602 33.6752 36.3992 33.5672 36.4932 33.6012V34.0472C36.5012 34.2312 36.7582 34.1662 36.9392 34.1762C37.3602 33.6372 38.0412 33.3612 38.4712 32.8392C39.0142 33.1892 39.4232 33.6782 40.3922 33.6012C40.9152 33.8862 41.4132 34.2012 42.2462 34.1762C42.5502 34.6372 43.1172 34.8342 43.5872 35.1292V35.6382C44.0862 35.7992 44.7542 35.7952 44.7392 36.4662C44.5742 36.4662 44.3662 36.4312 44.3502 36.5912C44.3072 36.9012 44.6642 36.7942 44.5492 37.1662C44.6242 37.2382 44.7732 37.2372 44.9332 37.2282C44.8202 37.6392 45.2232 37.5332 45.1242 37.9272C45.6852 38.1562 46.1522 38.4762 46.2762 39.1382C45.8702 39.2012 45.7712 38.9582 45.6292 38.7562H44.5492C44.3152 38.3122 43.8902 38.0462 43.7782 37.4822C43.2722 37.3172 42.7452 36.9462 42.2462 37.2922C42.3452 37.6922 41.9442 37.5852 42.0572 37.9922C41.6152 38.1302 41.1642 38.2522 40.5192 38.1832C40.1222 37.3812 39.4192 37.4242 38.4132 37.6132C38.3092 37.0462 38.5742 36.8422 38.9832 36.7842C38.8372 35.5322 37.8912 35.0752 36.6242 34.9382C36.1932 34.5832 35.7372 34.5002 35.1512 34.7472C35.2132 34.2392 35.0222 33.9842 34.5702 33.9842C34.6702 33.6582 35.2882 33.8482 35.3402 33.4752ZM32.6492 33.2202C32.6492 33.4802 32.2972 33.7152 32.0722 33.5392C32.2092 33.3722 32.4072 33.2762 32.6492 33.2202ZM33.8032 34.5562C33.3842 34.2162 32.9952 34.3862 32.5862 34.2382C32.2672 34.2612 32.3452 34.6812 31.8832 34.5562C31.8712 34.3252 32.1522 34.2532 31.8832 34.1102C32.2312 33.4472 34.0512 33.8352 33.8032 34.5562ZM31.4972 34.2402C31.4522 34.5552 31.1222 34.5912 30.7312 34.5582C30.5882 33.9612 31.3342 33.8222 31.4972 34.2402ZM20.5012 36.5902C20.6352 36.6012 20.5222 36.3652 20.5582 36.2742C21.1542 36.2592 21.4942 36.4882 21.9092 36.6562C22.1022 36.4672 22.4462 36.4272 22.8632 36.4662C22.9032 36.8822 22.4112 36.7832 22.1622 36.9092C22.2252 37.1882 22.7862 36.9672 23.0572 37.0362C23.1502 37.3282 23.3972 37.4642 23.8212 37.4202C23.8222 37.5772 23.8352 37.7262 23.7642 37.8012C23.3652 37.8352 23.2252 37.4132 22.9942 37.8012C22.6842 37.4722 21.8632 37.6562 21.2662 37.6132C20.8752 37.4282 20.5162 37.2132 19.9252 37.2282C19.7192 37.2852 19.8402 37.0192 19.6702 37.0372C18.9632 37.4302 18.0412 36.7612 17.4902 36.4022C17.7862 35.7072 18.0822 36.1052 18.9002 36.0852C19.2282 36.4572 19.9742 36.4172 20.5012 36.5902ZM31.1102 37.1002C31.1592 37.3252 30.5792 37.2492 30.5352 37.1652C30.4842 36.9392 31.0612 37.0162 31.1102 37.1002ZM26.1302 37.8002C25.3782 38.0432 24.6912 37.8962 24.0152 37.9902C24.0142 37.6422 24.1242 37.4172 24.4632 37.4192C24.8172 37.9712 25.9602 36.8782 26.1302 37.8002ZM27.8522 37.6112V37.9902C27.1972 38.1312 27.0902 37.7302 26.5112 37.8002C26.6472 37.0622 27.3182 37.6582 27.8522 37.6112ZM29.9622 37.4802C30.0112 37.7052 29.4392 37.6302 29.3832 37.5452C29.3362 37.3232 29.9172 37.3962 29.9622 37.4802ZM31.3702 37.6742C30.8492 38.0452 30.0412 38.1322 29.7702 38.7552C29.3402 38.6452 29.2912 38.9152 29.0002 38.9452C28.8162 37.9112 29.9792 38.2192 30.2222 37.6112C30.7902 37.8412 31.2672 37.1232 31.3702 37.6742ZM46.0802 37.9902C46.4452 38.0522 46.5742 38.3462 46.7202 38.6262C46.6482 38.6432 46.6732 38.7532 46.5902 38.7552C46.3642 38.6182 46.3252 38.2972 46.0202 38.2452C46.0072 38.1312 46.0922 38.1112 46.0802 37.9902ZM26.1302 38.1802H26.8942C26.8952 38.4872 27.3202 38.3932 27.2792 38.7532C26.7032 38.8802 26.6852 38.4492 26.1302 38.5622V38.1802ZM37.0602 52.6882C37.2692 52.6652 37.3362 52.4952 37.4452 52.3692C36.9252 52.4082 36.6182 53.1942 35.9092 53.2592C36.0482 52.4642 35.2932 52.5592 35.2712 51.9232C34.6392 51.9542 34.2372 51.7612 33.8612 51.5442C33.5532 51.4672 33.6922 51.8362 33.3522 51.7322C33.0122 51.3422 32.3272 51.7312 32.0092 51.9232C30.7752 51.8202 30.0302 52.2072 29.5802 52.8782H28.7492C28.1902 52.3892 27.4282 52.9972 27.0212 53.2592C26.1932 53.3172 25.5002 53.2452 25.1672 52.8162C25.4892 52.2312 25.3392 51.3942 24.7822 51.1612C24.7152 50.0162 23.8962 49.6252 23.6332 48.6802H23.9532C23.8682 48.1292 23.4632 47.8922 23.2502 47.4702C23.6572 47.2212 23.2462 46.2652 23.5032 46.0082C23.7742 45.9092 23.5152 46.3362 23.6942 46.3262C24.0832 45.9092 24.5512 45.5702 25.0392 45.2442C25.2582 45.1932 25.3082 45.3152 25.4222 45.3732C25.7382 45.1562 26.2552 45.1402 26.5102 44.8632C27.3612 45.2582 27.7842 44.2592 28.2342 43.8452V43.1442C28.5422 43.1332 28.4492 42.7212 28.8172 42.7632C28.7752 43.0752 28.8962 43.2322 29.1312 43.2712C29.2732 43.1642 29.1552 42.7872 29.1982 42.5722H29.7072C29.7742 42.3352 29.5492 42.3912 29.5812 42.1912C30.1222 41.7532 30.5812 41.2392 31.3702 41.0452C31.6942 41.2102 31.8442 41.5512 32.1362 41.7462C32.4752 41.4602 32.4682 41.9172 32.9682 41.8092C32.7092 41.3972 33.0052 41.2942 33.0302 40.8542C33.1902 40.8552 33.3392 40.8662 33.4152 40.7922V40.2802C33.8142 40.0432 34.6532 40.2412 34.8872 39.8362C34.9182 39.5322 34.4952 39.6752 34.5652 39.3272C35.5622 39.6022 36.5442 40.2272 37.4462 39.9002C37.4692 40.0912 37.7092 40.0652 37.6342 40.3452C37.1962 40.6522 37.0972 41.2922 36.7432 41.6802C37.1282 42.2962 38.0682 42.3602 38.4672 42.9542H38.9792C38.8732 43.4432 39.3872 43.3122 39.5612 43.5252C39.7872 43.5252 39.7312 43.2282 40.0672 43.3352C40.3492 42.7432 40.6452 42.1712 40.5152 41.1732C40.7032 40.7822 40.9172 40.4262 40.8962 39.8352C41.0332 39.6702 41.1552 39.4982 41.0912 39.1372H41.4722C41.5832 39.8132 41.9142 40.2702 41.8562 41.1092C41.9802 41.4782 42.5732 41.3762 42.8192 41.6172C42.6102 42.8022 43.3812 43.0072 43.2022 44.1622C43.5842 44.5262 44.0632 44.7912 44.5472 45.0542C44.4152 45.5862 44.8312 45.5752 44.7362 46.0722C44.8792 46.2262 45.1532 46.2542 45.3152 46.3902C45.3522 47.1812 45.8952 47.4612 46.2742 47.9152C46.1942 48.5992 45.9802 49.1552 46.0812 50.0172C45.6372 50.2742 45.4652 50.8062 45.3152 51.3512C45.0932 51.4532 44.8842 51.5652 44.9302 51.9242C44.4552 51.9672 44.2052 52.2202 44.1612 52.6902C43.8482 52.9552 43.4232 53.1012 43.3932 53.6422C43.1622 53.6242 43.2192 53.8922 43.0112 53.8992V54.4082C42.5812 54.6802 41.6022 54.4082 41.4712 54.9782H40.5142V54.6612C40.2242 54.6242 40.2182 54.8742 40.0662 54.9782C39.2452 55.1212 38.9572 54.7282 38.2132 54.7872C38.2242 54.6492 38.1602 54.5862 38.0222 54.5982V53.9602C37.8672 53.8242 37.8152 53.5752 37.4462 53.6432C37.3652 53.3292 37.6022 53.3312 37.5702 53.0702C37.1642 53.0232 37.2352 53.4542 36.8682 53.4542C36.8802 53.1462 37.1622 53.1072 37.0602 52.6882Z" fill="#00A650"/>
<path d="M37.0607 53.7031C37.1157 53.9291 36.5357 53.8531 36.4877 53.7661C36.4367 53.5461 37.0107 53.6201 37.0607 53.7031ZM39.9377 55.9311C40.3277 55.8601 40.5107 56.0001 40.7097 56.1221C40.9067 56.0001 41.0827 55.8591 41.4717 55.9311C41.6277 56.8311 40.4377 57.3821 39.9377 56.8241C40.2077 56.5641 39.8367 56.3871 39.9377 55.9311ZM3.93472 17.9571C3.93472 17.9551 3.93472 17.9521 3.93872 17.9511C4.28872 18.0251 4.38072 17.8431 4.64172 17.8261C4.68172 18.2091 4.54272 18.7761 4.76772 18.9701C4.57872 19.2471 4.33772 19.4741 4.44772 20.0511C4.76772 20.1341 4.76172 19.8981 5.02472 19.9261C4.91672 20.4941 4.55472 20.8191 4.64172 21.5781C4.69772 21.7841 4.47572 21.7091 4.44872 21.8331C4.55172 23.6231 4.23772 25.8171 4.64172 27.3031C5.32072 27.0651 5.23472 26.0711 5.79472 25.7131C5.82272 24.5781 6.58772 24.1721 6.36772 22.7871C6.56872 22.5601 7.01172 22.5811 7.00372 22.1521C7.35072 22.2571 7.28572 21.9611 7.52072 21.9611C7.78572 21.0571 8.67772 20.7801 9.11972 20.0511C9.56572 20.1401 9.49472 19.7091 9.82272 19.6711V19.1601C9.88369 19.1443 9.93928 19.1124 9.98363 19.0677C10.028 19.023 10.0595 18.9672 10.0747 18.9061C10.9517 18.9961 11.3997 18.6531 11.9307 18.3971C11.9307 18.9931 11.8737 19.6341 12.4367 19.6691C12.5037 19.9241 12.2507 19.8601 12.3117 20.1131C12.7597 20.5951 12.3727 21.5151 12.3117 22.0871C13.0407 22.3371 13.2697 21.5521 13.8457 21.4511C13.6007 22.6221 14.3907 23.6561 13.8457 24.5041C14.2267 25.0771 13.5177 25.9191 13.6547 26.8581C13.6837 27.0001 13.9937 26.8581 14.0397 26.9831C14.1187 27.4201 14.2887 27.7591 14.6167 27.9391C14.4907 28.4691 14.8297 29.0691 14.6167 29.2771C14.6527 29.4951 14.8497 29.5531 14.9997 29.6581C14.9917 30.7861 16.2477 30.6581 16.5357 31.5021C16.7097 31.4611 17.0427 31.5831 17.1127 31.4381C17.1357 31.2251 16.8327 31.3341 16.7237 31.2481C16.8007 30.6451 16.5717 30.3441 16.3467 30.0401V28.5131C15.8297 28.1541 15.6397 27.4741 14.8067 27.4321C14.9427 26.7721 14.4947 26.6781 14.6177 26.0321C14.5897 25.8901 14.2797 26.0321 14.2327 25.9041C14.2507 25.2881 14.5687 24.9641 14.8077 24.5691C14.7677 24.0371 14.9067 23.6891 15.1907 23.4861C15.4907 23.4481 15.3567 23.8371 15.3887 24.0591C15.8897 23.9621 15.9807 24.2761 16.3477 24.3151V24.9501C16.5257 25.0501 16.8487 25.0001 16.7247 25.3961C16.9287 25.4111 17.1967 25.3531 17.3017 25.4591V26.5401C17.7217 26.1701 18.3617 26.0241 18.5197 25.3961C19.2737 25.1911 19.8287 24.7901 20.1867 24.1881V22.2171C19.9177 22.0741 19.9457 21.9321 19.7997 21.6431C19.6767 21.3971 19.1537 21.1481 19.0337 20.9431C18.9937 20.8821 19.0737 20.7441 19.0337 20.6891C18.8187 20.3971 18.4887 20.2701 18.6487 19.5431C19.3657 19.1771 19.6587 18.3921 20.6957 18.3361C21.0037 18.4931 20.8257 19.1371 21.2687 19.1631C20.8857 19.3541 20.2897 19.3301 20.1867 19.7991C20.1827 20.1621 20.4827 20.2231 20.6287 20.4361C21.2077 20.3111 21.3397 19.7411 21.7167 19.4171C21.7307 19.1091 21.3457 19.1961 21.3357 18.9091C21.6297 18.3921 22.3147 18.2711 22.9967 18.1441C23.5587 17.5411 24.1157 17.6901 25.1067 17.5731C25.1537 17.3241 25.3047 17.1771 25.4267 16.9991C26.3907 17.0931 26.2527 16.0811 27.0897 16.0461C26.9437 15.1601 27.8457 15.3161 27.8557 14.5831C28.4997 14.5201 28.5157 13.8391 28.8207 13.4371C28.7297 13.2511 28.2027 13.4941 28.1127 13.3101C28.0727 13.0361 28.5627 13.2901 28.6237 13.1181C28.8647 12.1611 27.9507 12.3471 28.0407 11.5291C27.8887 11.3501 27.6697 11.2271 27.5357 11.0201C27.9777 10.6081 28.3807 10.1621 29.2027 10.1291V9.80807C28.9857 9.65907 28.4367 9.85007 28.3697 9.55407C28.1287 9.67407 27.9037 9.81607 27.6627 9.93507C27.4627 9.96807 27.4567 9.79807 27.4747 9.61707C27.2637 9.51007 26.9157 9.53507 26.9587 9.17307C28.0367 9.26907 28.1277 8.38107 29.1347 8.41007C29.0247 8.76707 28.7537 8.96307 28.6237 9.29707C29.1287 9.30807 29.6977 8.50907 30.5447 8.85407C30.6007 9.16507 30.4937 9.31207 30.3517 9.42807C30.3917 9.78807 30.8257 9.75907 31.2447 9.74507C31.1147 10.2881 31.1937 10.5241 31.1197 11.2731C31.8087 11.2551 32.2397 10.9881 32.8477 10.8911C32.9617 9.84407 32.5347 9.33407 31.8887 9.04707C31.9997 8.62707 32.5797 8.67307 32.8477 8.41007C32.8277 7.78507 33.4197 7.75307 33.7407 7.45407C34.9727 8.14507 35.6047 6.82907 36.4297 6.50207C36.5287 6.13407 36.7567 5.89507 37.0657 5.73707V4.46407C37.7487 4.63307 37.5437 5.68307 38.0267 6.05407C37.9497 6.53107 37.9817 6.78707 38.2177 7.07307C38.1607 7.48407 37.5987 7.39407 37.4497 7.70807C37.8627 8.11307 37.9617 9.08507 37.6377 9.68107C37.3987 9.77307 37.5217 9.50907 37.3207 9.55507C37.0797 9.69607 37.4857 9.72607 37.3867 9.93607C36.7687 9.84907 36.6797 10.2951 36.1707 10.3191C36.0317 10.3081 36.1437 10.5431 36.1087 10.6371C35.5997 10.3601 35.2197 10.8711 34.4427 10.7011C34.0097 11.1171 33.4557 11.4141 32.8467 11.6541C32.7917 12.1961 33.2077 12.2651 33.2237 12.7361C33.3917 12.8111 33.5927 12.8401 33.6757 12.9921C34.1137 12.9631 33.8937 12.2771 34.1837 12.1001C34.2347 11.7371 33.8227 11.8291 33.8657 11.4641H34.3177C34.4467 11.5681 34.3117 11.9331 34.4427 12.0381C34.8407 12.0301 34.9397 11.7231 35.4647 11.8451C35.6537 11.7541 35.4047 11.2351 35.5907 11.1451C35.8197 11.3461 35.8977 11.6881 36.1697 11.8451C36.4117 11.6821 36.6897 11.5571 36.6857 11.1451C37.2117 11.2631 37.8307 11.3791 38.0257 10.9541C38.2277 10.9011 38.2227 11.0551 38.3477 11.0831C38.5097 11.1021 38.3927 10.8361 38.5967 10.8901C38.4857 9.99307 38.7327 9.45007 38.9817 8.91807C38.7637 8.54507 38.3207 8.38707 38.2787 7.83807C38.6207 7.81807 38.9457 7.81107 39.0457 8.02707C39.3667 7.91807 39.3787 7.50507 39.9417 7.64507C39.9757 7.55207 39.8697 7.31807 40.0037 7.32807C39.8297 7.04007 39.3407 7.05907 38.8547 7.07307C38.8137 6.69707 38.2687 6.81007 38.2187 6.43607C38.2727 6.25707 38.5627 6.31107 38.7917 6.30807C38.8167 5.95007 38.4637 5.96007 38.2187 5.86407V5.41807C38.2607 5.29407 38.5737 5.43307 38.5987 5.29307V5.03707C37.8577 4.91207 37.9567 3.93707 37.3877 3.63807C37.1327 3.61707 37.2077 3.93007 37.0067 3.95307C36.5687 3.71507 36.0907 3.50807 35.5927 3.82707C35.5307 3.59007 35.7547 3.64707 35.7237 3.44707C35.4237 3.32207 35.3167 3.71307 35.1517 3.50907C35.0787 3.17607 35.5537 3.23507 35.8537 3.06407C36.2037 2.86407 36.8097 2.08307 37.3217 2.68307C38.4287 2.55807 39.1117 2.85507 40.0717 2.87407C40.2377 2.80407 40.0507 2.38207 40.2057 2.30007H40.8377C40.8737 2.47907 41.0657 2.50707 41.0967 2.68307C41.4107 2.75907 41.2687 2.39007 41.6087 2.49207C41.5057 2.75207 41.5527 3.15907 41.0967 3.06507C41.0017 4.31307 42.7077 4.34507 42.4437 5.35607C42.7477 5.34707 42.7537 5.03307 43.0177 4.97407C42.8417 4.25207 43.5627 4.40907 43.3997 3.70207C43.1667 3.29807 42.3837 3.44207 42.3097 2.87507C42.7697 3.00407 42.7077 3.05807 43.1407 2.87507C43.3827 2.80807 43.3537 3.00807 43.4597 3.06507C43.5827 3.06307 43.7087 3.07307 43.8387 3.08907C43.7442 2.96706 43.6625 2.83571 43.5947 2.69707C43.4757 2.45907 43.8597 2.64307 43.8387 2.40707C40.1227 1.07107 35.4367 -0.0859289 30.6737 0.137071C28.3217 0.249071 25.6747 0.617071 23.5107 1.22107C17.1747 2.98407 11.9717 6.35607 8.22472 10.4431C6.40872 12.4341 4.68672 15.0861 3.26172 17.7271C3.42372 17.7941 3.56172 17.5371 3.68572 17.6581C3.77572 17.7531 3.86272 17.8541 3.93472 17.9571ZM29.7717 31.1201V31.6941C29.2387 31.5851 29.3967 32.1681 28.8757 32.0751C28.8217 32.3561 28.8307 32.7021 28.4927 32.7101C28.3937 32.9801 28.8267 32.7111 28.8187 32.9011C28.7917 33.1971 28.3747 32.9631 28.3667 32.8381C28.2167 33.0511 28.1257 33.3181 27.9187 33.4751C28.1817 34.0181 28.2957 34.7081 28.8187 35.0011C28.7197 35.2051 28.5367 35.3211 28.6217 35.7011H28.2367V35.3821C27.9997 35.3151 28.0487 35.5411 27.8537 35.5121C27.7987 35.2911 27.5737 35.2401 27.4727 35.0661C27.4367 34.9221 27.5927 34.9751 27.6007 34.8741C27.2397 34.7051 27.4097 34.0051 27.0877 33.7941C26.6637 34.0761 27.0007 35.1071 26.8947 35.7021H26.1307C26.1607 35.2421 26.4387 35.0351 26.3187 34.4291C26.2197 34.3241 25.9437 34.3781 25.7457 34.3671C25.8797 33.5021 26.1527 33.0031 25.9377 32.2681C26.1687 32.3061 26.1367 32.0791 26.1307 31.8851H26.4527C26.6977 30.4281 28.7057 31.8271 29.7717 31.1201ZM28.2347 32.4541C28.5527 32.3461 28.6597 32.0271 28.7507 31.6941H27.3447C27.6507 31.9371 28.0737 32.0691 28.2347 32.4541ZM26.7017 32.1401V32.3921C26.9557 32.4731 27.6987 32.5531 27.8527 32.3291C27.8527 31.9121 26.9797 32.0711 26.7017 32.1401ZM31.6887 30.5481H31.8837C31.9847 30.7541 31.8677 30.7901 31.8837 31.0571C32.1367 31.1191 32.0767 30.8671 32.3277 30.9301C32.3487 31.0141 32.4437 31.0301 32.4557 31.1201C32.5467 31.3971 32.2107 31.2551 32.2637 31.5011C32.2817 31.8041 32.7047 31.7011 32.6487 32.0751C32.0087 31.9251 32.1077 32.5141 31.6877 32.5831C31.6887 32.8721 31.9697 32.8971 32.0727 33.0921C32.0177 33.3311 31.8357 33.4501 31.4967 33.4111C31.3387 32.3001 31.3867 31.5761 31.6887 30.5481Z" fill="#1E75BB"/>
</g>
<defs>
<clipPath id="clip0_621_7110">
<rect width="64" height="64" fill="white"/>
</clipPath>
</defs>
</svg>
