<svg width="64" height="64" viewBox="0 0 64 64" fill="none" xmlns="http://www.w3.org/2000/svg">
<path d="M62 31.9999C62 48.5999 48.6 61.9999 32 61.9999C15.4 61.9999 2 48.5999 2 31.9999C2 27.5999 2.9 23.4999 4.6 19.6999L36.6 2.3999C38.9 2.7999 41.1 3.3999 43.1 4.1999L43.8 5.6999L45 4.8999C55 9.7999 62 20.0999 62 31.9999Z" fill="#008DB3"/>
<path d="M7.49961 20.9C8.39961 22.7 9.59961 20.3 9.49961 22.1C9.39961 23.9 10.6996 27.9 11.4996 27.4C12.2996 26.9 12.2996 23.9 13.5996 23.6C14.9996 23.2 16.8996 20.9 17.4996 22C18.0996 23 17.8996 24.9 18.3996 24.5C18.8996 24.1 19.5996 24.5 19.4996 25.8C19.3996 27.1 20.5996 28.9 20.9996 29.6C21.3996 30.3 18.8996 27.6 17.6996 26C16.4996 24.4 18.5996 29.4 20.0996 31.3C21.5996 33.2 27.4996 34.5 28.9996 35.3C30.4996 36.1 34.6996 33.8 33.0996 33.9C33.0996 33.9 29.3996 34.4 28.0996 33.7C26.7996 33 23.6996 33 23.0996 32.1C22.5996 31.2 22.5996 29.8 21.5996 28.5C20.6996 27.2 20.0996 24.9 21.2996 25.9C22.4996 26.9 23.8996 27.1 24.0996 26.4C24.2996 25.7 21.6996 23.4 23.2996 22.4C24.8996 21.4 26.4996 22.1 27.1996 21.4C27.9996 20.6 29.7996 18.3 29.2996 17.2C28.8996 16.1 28.7996 15.3 29.2996 15C29.7996 14.7 26.7996 14.7 27.9996 13.8C29.1996 12.9 30.4996 12.2 30.5996 13.8C30.6996 15.4 30.5996 16.9 31.1996 16.9C31.7996 16.9 32.6996 15.1 32.4996 14.3C32.1996 13.5 32.7996 11.8 33.9996 11.7C35.1996 11.6 36.5996 9.6 36.8996 7.7C37.1996 5.8 37.1996 4.2 36.2996 4.4C35.4996 4.6 35.3996 3.4 36.5996 2.4C35.0996 2.1 33.5996 2 31.9996 2C19.7996 2 9.29961 9.3 4.59961 19.7C5.59961 19.7 6.89961 19.8 7.49961 20.9ZM42.5996 7.9C41.8996 9.1 43.6996 7.4 44.8996 4.9C44.2996 4.6 43.6996 4.4 43.0996 4.1C43.1996 5.2 43.1996 7 42.5996 7.9Z" fill="#FFC942"/>
<path d="M34.2998 16.9C35.6998 16 37.8998 16 37.8998 14.1C37.8998 12.2 43.2998 9.00003 41.9998 9.10003C40.6998 9.20003 38.1998 11.6 38.1998 10C38.1998 8.40003 38.1998 5.40003 37.8998 4.60003C37.4998 3.70003 37.6998 9.00003 37.2998 9.90003C36.8998 10.8 37.2998 14.1 36.1998 14.5C34.9998 14.9 32.9998 15.8 32.9998 17C32.9998 18.2 32.8998 17.8 34.2998 16.9ZM35.7998 32.7C36.4998 33.3 35.3998 34.9 36.1998 34.5C36.9998 34.2 37.8998 35.1 38.2998 34.5C38.6998 34 38.7998 33.6 39.9998 34.7C41.2998 35.7 42.1998 35.5 41.3998 34.7C40.5998 33.9 39.8998 32.5 38.1998 32C38.1998 32 36.3998 31.8 35.1998 31.2C35.1998 31.2 33.4998 30.3 32.8998 30.9C32.3998 31.5 32.3998 29.3 31.9998 29.7C31.5998 30.1 32.1998 31.4 30.9998 31.1C29.7998 30.8 29.3998 31.2 29.0998 30.2C28.7998 29.2 26.9998 29.7 28.3998 29C29.7998 28.3 30.4998 28 30.4998 28.6C30.5998 29.2 31.8998 28.1 31.3998 26.5C30.8998 25 29.4998 25.5 29.5998 23.5C29.5998 22.6 28.1998 23.8 28.4998 24.9C28.6998 26 28.1998 26.2 27.6998 27.1C27.0998 28 24.9998 30 24.4998 30C23.8998 30 24.0998 31.1 24.4998 31.8C24.8998 32.5 26.8998 32.6 27.2998 32.7C27.6998 32.8 28.1998 29.6 28.2998 30.5C28.3998 31.4 28.5998 33.9 28.8998 33.3C29.1998 32.7 30.2998 33.5 30.2998 33C30.2998 32.5 29.7998 31.5 30.8998 32C31.9998 32.5 33.4998 32.9 33.3998 32.3C33.1998 31.6 35.0998 32.1 35.7998 32.7ZM29.1998 26C29.6998 28.1 28.4998 28.5 28.0998 28.1C27.6998 27.7 29.0998 25.5 29.1998 26ZM40.6998 39.7C38.9998 38.2 38.2998 35.8 37.8998 35.5C37.1998 34.9 37.4998 37.5 37.2998 38.1C37.0998 38.6 36.0998 37.5 35.6998 37.2C35.1998 37 35.4998 36.6 35.6998 36.2C35.8998 35.7 34.7998 35.3 33.9998 35.5C33.1998 35.7 33.1998 35.4 32.8998 36.1C32.5998 36.8 32.7998 37.3 31.9998 36.9C31.1998 36.5 30.6998 37.1 30.0998 37.7C29.4998 38.3 29.2998 38.6 29.0998 39C28.8998 39.5 25.6998 39.2 25.6998 40.7C25.6998 42.2 26.9998 43.4 26.6998 44.5C26.3998 45.6 26.8998 46.8 27.8998 46.3C28.8998 45.7 30.2998 45.9 30.6998 45.4C31.0998 44.9 33.7998 44.2 34.1998 45.1C34.6998 46 35.1998 46.4 35.9998 46.4C36.7998 46.4 36.8998 47.2 36.8998 47.7C36.8998 48.3 38.0998 47.8 38.7998 48C39.4998 48.2 41.0998 48.1 41.2998 46.7C41.3998 45.4 42.1998 44.5 42.3998 43.8C42.5998 43.1 42.2998 41.1 40.6998 39.7ZM39.1998 48.8C38.3998 48.7 38.9998 50.6 39.4998 50.7C39.9998 50.9 40.2998 49.6 40.1998 48.8C40.1998 48.2 39.9998 48.9 39.1998 48.8ZM51.7998 47.1C51.2998 47.2 50.8998 45.8 50.4998 46.1C49.7998 46.7 51.2998 48 50.4998 48.7C49.6998 49.4 49.4998 50.6 48.7998 50.7C48.0998 50.8 47.1998 51.7 47.7998 52.2C48.3998 52.7 49.3998 52.2 49.6998 51.2C49.9998 50.2 50.2998 49.8 50.9998 49.5C51.6998 49.2 51.5998 48.4 52.2998 47.9C52.9998 47.6 52.2998 47.1 51.7998 47.1Z" fill="#FFC942"/>
</svg>
