<svg width="64" height="64" viewBox="0 0 64 64" fill="none" xmlns="http://www.w3.org/2000/svg">
<path d="M61.9551 27.847C61.9224 27.5661 61.8863 27.2857 61.8466 27.0057C61.838 26.9971 61.8285 26.9905 61.8198 26.9822C60.7349 20.647 57.68 14.9852 53.3086 10.648C52.8073 11.1992 52.1194 11.2801 51.0119 10.9867C50.062 10.7352 49.183 10.2266 48.2421 9.92858C45.4904 9.05708 43.6264 9.88296 42.3809 12.4663C42.345 12.5408 42.2985 12.6128 42.2776 12.6915C41.7926 14.5163 39.5929 14.6272 38.8258 16.08C38.0979 17.4585 37.5748 18.8181 36.2035 19.8552C34.8763 20.8591 33.8378 22.3425 32.9393 23.7817C32.3074 24.7938 32.5551 26.0297 33.3594 27.0183C33.5653 27.2713 33.8588 27.4508 34.0904 27.6853C36.1636 29.7836 36.2106 31.6523 34.0884 33.6487C33.0686 34.608 32.2908 35.4367 31.9561 36.9928C31.5909 38.691 29.9565 39.0027 28.2285 38.8531C27.9269 38.827 27.6513 38.6653 27.4944 38.4065C26.7951 37.2521 25.9184 36.2787 24.2355 36.2472C23.6596 36.2365 23.1298 35.3308 22.526 34.911C21.3191 34.0718 20.161 33.0842 18.8294 32.5191C16.0605 31.3438 13.4921 32.5655 12.5755 35.4915C12.0639 37.1246 11.9124 38.8755 11.6568 40.582C11.5004 41.6262 11.7074 42.9171 10.4495 43.3197C9.09677 43.7526 8.37477 42.6262 7.64952 41.7222C6.25564 39.9847 5.67302 37.9405 5.43689 35.7723C5.39227 35.3627 5.41952 34.9457 5.38789 34.5341C5.16327 31.607 4.47752 30.8675 1.76964 30.889C1.75285 31.3008 1.74435 31.713 1.74414 32.1252C1.74414 48.8352 15.2903 62.3813 32.0003 62.3813C48.7103 62.3813 62.2564 48.835 62.2564 32.125C62.2564 30.6727 62.153 29.2446 61.9551 27.847Z" fill="#3BCCFF"/>
<path d="M1.76953 30.8888C2.03241 24.3547 4.36816 18.3549 8.13603 13.5271C9.11934 12.2661 10.2005 11.0846 11.3694 9.99356C12.4358 8.99895 13.5723 8.08238 14.7703 7.25093C16.7076 5.90677 18.7957 4.7943 20.992 3.93631C22.1632 3.47797 23.362 3.09367 24.5814 2.78568C25.9644 2.43735 27.3704 2.18756 28.7888 2.03818C28.9742 2.01868 29.1599 2.00031 29.3462 1.98406C31.2453 1.81883 33.1558 1.83142 35.0527 2.02168C35.726 2.08918 36.3925 2.17956 37.0522 2.29056C38.4759 2.52948 39.8805 2.87057 41.2553 3.31118C44.2229 4.26368 46.9905 5.66231 49.48 7.42743C49.8325 7.67743 50.1793 7.93506 50.5204 8.19956C50.6979 8.3352 50.8745 8.47212 51.05 8.61031C51.1233 8.66838 51.1941 8.72938 51.2624 8.79318C51.9721 9.38019 52.6548 9.99912 53.3084 10.6481C52.807 11.1993 52.1192 11.2802 51.0117 10.9868C50.0618 10.7353 49.1828 10.2267 48.2419 9.92868C45.4902 9.05718 43.6262 9.88306 42.3807 12.4664C42.3448 12.5409 42.2983 12.6129 42.2774 12.6916C41.7924 14.5164 39.5927 14.6273 38.8255 16.0801C38.0977 17.4586 37.5745 18.8182 36.2033 19.8553C34.876 20.8592 33.8375 22.3426 32.939 23.7818C32.3072 24.7939 32.5549 26.0298 33.3592 27.0184C33.565 27.2714 33.8585 27.4509 34.0902 27.6854C36.1634 29.7837 36.2104 31.6524 34.0882 33.6488C33.0684 34.6081 32.2905 35.4368 31.9559 36.9929C31.5907 38.6911 29.9563 39.0028 28.2283 38.8532C27.9267 38.8271 27.651 38.6654 27.4942 38.4066C26.7949 37.2522 25.9182 36.2788 24.2353 36.2473C23.6594 36.2366 23.1295 35.3309 22.5258 34.9111C21.3189 34.0719 20.1608 33.0843 18.8292 32.5192C16.0603 31.3439 13.4919 32.5656 12.5753 35.4916C12.0637 37.1247 11.9122 38.8756 11.6565 40.5821C11.5002 41.6263 11.7072 42.9172 10.4493 43.3198C9.09653 43.7527 8.37453 42.6263 7.64928 41.7223C6.25541 39.9848 5.67278 37.9406 5.43666 35.7724C5.39203 35.3628 5.41928 34.9458 5.38766 34.5342C5.16316 31.6068 4.47741 30.8672 1.76953 30.8888ZM42.6497 43.5234C41.2727 44.2987 40.0222 44.4437 38.7645 43.4237C37.5977 42.4773 36.4618 42.6884 35.3658 43.4914C34.2357 44.3194 33.1449 45.2018 32.0477 46.0738C31.8574 46.2251 31.7012 46.4299 31.5618 46.6324C30.2977 48.4681 31.2095 50.7388 33.4337 50.7981C35.7863 50.8607 37.9769 51.1777 40.097 52.2524C40.9454 52.6824 42.0108 52.6842 42.496 52.7828C45.7703 52.8641 47.4702 51.4504 47.435 48.6827C47.417 47.2662 46.9473 45.7491 46.2978 44.4729C45.4099 42.7284 44.415 42.5294 42.6497 43.5234ZM37.737 27.6868C37.9758 27.5856 38.2184 27.4987 38.4675 27.4398C39.4723 27.2022 39.8797 26.6927 40.2205 25.6963C40.7362 24.1886 41.4929 22.7104 42.4119 21.4062C43.5108 19.8467 43.7032 19.2633 42.5558 18.2682C42.0755 17.8516 41.3875 17.7627 40.8204 18.0501C39.9175 18.5077 39.19 19.0767 39.8287 20.6057C39.9738 20.9532 39.6909 21.5498 39.4745 21.9626C39.1688 22.5456 38.7968 23.0938 38.3682 23.7514C38.1679 24.0588 37.8648 24.2843 37.5154 24.3966C36.2769 24.7944 35.6348 25.3312 35.5499 26.1163C35.4232 27.2889 36.6513 28.1473 37.737 27.6868ZM33.5352 39.5132C35.3877 39.7842 37.2403 40.0754 39.1039 40.2299C39.4024 40.2547 39.937 39.6918 40.0423 39.3119C40.2562 38.5399 39.7317 37.9778 39.0053 37.9392C37.4483 37.8562 35.8775 37.8489 34.3257 37.9741C34.0295 37.9979 33.7559 38.2998 33.4869 38.5941C33.2754 38.8253 33.2434 39.1778 33.4297 39.4298C33.4654 39.4782 33.4985 39.5078 33.5352 39.5132ZM13.92 41.8702C13.391 42.1328 12.7635 42.5187 12.5583 43.0153C12.4234 43.3416 12.5688 43.7837 12.7145 44.3203C12.7944 44.6142 13.127 44.7586 13.3952 44.6142C13.8594 44.3642 14.1937 44.2074 14.3745 43.9449C14.661 43.5291 14.8114 42.9422 14.7994 42.4348C14.7945 42.2243 14.0943 41.7837 13.92 41.8702ZM41.2977 37.3328C40.9249 37.5263 40.8512 38.0297 41.1478 38.3269C41.7987 38.9793 42.523 38.9988 43.3039 38.7877C43.6437 38.6958 43.849 38.3436 43.7449 38.0073C43.3629 36.7741 42.7264 36.5913 41.2977 37.3328Z" fill="#13A031"/>
</svg>
